<?xml version="1.0" encoding="UTF-8"?>
<svg version="1.1" xmlns="http://www.w3.org/2000/svg" width="1024" height="1024">
<path d="M0 0 C1.45973693 -0.00231122 2.91947268 -0.00549213 4.37920606 -0.00945449 C8.34500582 -0.01772026 12.31070798 -0.01371515 16.27650785 -0.00748205 C20.5710179 -0.00292459 24.8655121 -0.00995747 29.16001892 -0.01544189 C37.55447125 -0.02430217 45.94888767 -0.02242908 54.34334137 -0.01661661 C61.16877124 -0.01208743 67.99419109 -0.01149264 74.81962204 -0.01366425 C75.79353881 -0.01397071 76.76745558 -0.01427718 77.77088498 -0.01459293 C79.74976847 -0.01523242 81.72865195 -0.01588085 83.70753543 -0.01653811 C102.23195827 -0.02223139 120.75636126 -0.01569896 139.28078084 -0.00493738 C155.15646595 0.00400004 171.03212181 0.00244257 186.9078064 -0.0067749 C205.37210489 -0.0174904 223.83638603 -0.02168512 242.30068719 -0.01555037 C244.27140514 -0.01491332 246.24212308 -0.01428457 248.21284103 -0.01366425 C249.66705631 -0.01320142 249.66705631 -0.01320142 251.15064967 -0.01272924 C257.96451844 -0.01100635 264.77837614 -0.01390857 271.59224319 -0.01862335 C279.90068686 -0.02424629 288.20909276 -0.02268596 296.51753213 -0.01206186 C300.7520752 -0.00682459 304.98655541 -0.00471513 309.22109795 -0.01136017 C313.10464438 -0.01736204 316.98807027 -0.01397538 320.87160592 -0.00340506 C322.26909038 -0.0011889 323.66658524 -0.00226669 325.06406291 -0.00715664 C346.49893942 -0.07634969 362.66407404 4.11224372 378.52694702 18.84381104 C390.77435669 31.37557184 395.22138624 47.13310676 395.13968468 64.29291058 C395.14319075 65.24461021 395.14669683 66.19630984 395.15030915 67.17684886 C395.15957207 70.34825958 395.15471305 73.51948461 395.14984131 76.69090271 C395.15358013 78.99475815 395.15818258 81.29861233 395.16357195 83.6024645 C395.17578851 89.92021617 395.17554306 96.23791484 395.1731832 102.55567563 C395.17184344 108.6737759 395.18180373 114.79186354 395.19040898 120.90995621 C395.2097263 134.9651247 395.21537635 149.02027858 395.2165231 163.07545879 C395.21744305 173.93175586 395.22156426 184.78804721 395.22792435 195.64434242 C395.2297195 198.77210738 395.23149913 201.89987234 395.2332741 205.0276373 C395.23393725 206.19407639 395.23393725 206.19407639 395.23461379 207.38407991 C395.246918 229.25007478 395.25481534 251.11606767 395.25392723 272.98206615 C395.25388049 274.21804998 395.25388049 274.21804998 395.25383281 275.47900317 C395.25366661 279.65508772 395.25346852 283.83117228 395.2532634 288.00725683 C395.25322351 288.83660521 395.25318362 289.66595358 395.25314252 290.52043373 C395.25306164 292.19757748 395.25297805 293.87472123 395.25289174 295.55186498 C395.25166642 321.6414715 395.26667764 347.73102603 395.29403687 373.82061768 C395.32478027 403.14925183 395.34196801 432.47785183 395.34011042 461.80650312 C395.33996117 464.93583985 395.33986375 468.06517658 395.33980179 471.19451332 C395.33977848 471.96500417 395.33975517 472.73549501 395.33973116 473.52933407 C395.3396697 485.91003666 395.35242262 498.29069398 395.36966632 510.67138312 C395.3866476 523.12144359 395.38857712 535.57143805 395.37544768 548.02150371 C395.36872228 554.7616865 395.36879139 561.50169607 395.38615417 568.24186516 C395.40190128 574.41845839 395.39900408 580.59475866 395.38158591 586.77134482 C395.37851969 588.99941647 395.38213401 591.22751007 395.39330606 593.45555582 C395.48036897 612.05850812 394.21890054 632.17180905 380.68319702 646.54693604 C364.37170497 662.00923978 347.96877408 667.74899318 325.70162964 667.63491821 C324.21061852 667.63838272 322.71960998 667.64315258 321.2286067 667.64909995 C317.16703705 667.66153075 313.10568105 667.65547603 309.04411101 667.64614129 C304.65003429 667.63931838 300.25599281 667.64984801 295.86192322 667.65808105 C287.26799095 667.67138616 278.67413751 667.66855505 270.08020222 667.65984313 C263.09263091 667.65305428 256.1050816 667.65215506 249.11750793 667.65541458 C247.62292197 667.65610413 247.62292197 667.65610413 246.09814236 667.65680761 C244.0736798 667.65776683 242.04921725 667.65873947 240.0247547 667.65972538 C221.0634975 667.66826984 202.10228388 667.65845998 183.14103383 667.64232428 C166.88895313 667.62892197 150.63693672 667.63125033 134.38485718 667.64508057 C115.48914358 667.66115308 96.59346814 667.66744595 77.69774866 667.65824378 C75.68094032 667.65728818 73.66413197 667.65634506 71.64732361 667.65541458 C70.6551439 667.65495175 69.66296419 667.65448893 68.64071843 667.65401208 C61.66556502 667.6514272 54.6904359 667.65578233 47.71528625 667.66285324 C39.20914918 667.67128702 30.70309511 667.6689487 22.19696748 667.65301101 C17.86114968 667.64515353 13.52547002 667.64199342 9.1896534 667.65195847 C5.21345355 667.66095846 1.2375187 667.65588613 -2.73865741 667.64002581 C-4.16984738 667.6367003 -5.60106016 667.63832124 -7.03223521 667.64565317 C-25.49976351 667.73293639 -41.46917081 663.35090089 -55.05117798 650.52911377 C-59.41713525 646.19364087 -62.815568 641.41394251 -66.11758423 636.25396729 C-67.11141326 634.91602796 -68.11033553 633.58183318 -69.11758423 632.25396729 C-71.29940852 628.73880592 -71.6176388 625.32495147 -72.11758423 621.25396729 C-72.28517561 620.49106945 -72.45276699 619.72817161 -72.6254369 618.94215566 C-73.19543075 615.82875697 -73.33151854 612.84487585 -73.42944145 609.6804533 C-73.44991392 609.02894602 -73.47038639 608.37743873 -73.49147923 607.70618881 C-73.55755969 605.5120088 -73.61557613 603.31772457 -73.67199707 601.12327576 C-73.70345437 599.95450766 -73.70345437 599.95450766 -73.73554717 598.76212808 C-74.31229379 576.82967041 -74.26031385 554.89261704 -74.2483089 532.95425498 C-74.24601109 526.71932934 -74.24955564 520.4844063 -74.25228882 514.2494812 C-74.25644466 502.79083912 -74.25613304 491.33220448 -74.25337735 479.87356245 C-74.25084565 469.29269837 -74.25021257 458.71183623 -74.25139999 448.13097191 C-74.25147638 447.42471776 -74.25155276 446.71846361 -74.25163146 445.99080782 C-74.25194287 443.12294231 -74.25226128 440.2550768 -74.25259123 437.3872113 C-74.25563693 410.59431765 -74.25289687 383.80142738 -74.24749433 357.00853425 C-74.24274033 333.25106937 -74.24318314 309.49360985 -74.24795532 285.73614502 C-74.25331638 258.95851106 -74.25543057 232.18088005 -74.25234306 205.40324563 C-74.25202239 202.54698479 -74.25170955 199.69072396 -74.25139999 196.83446312 C-74.25132092 196.13132713 -74.25124184 195.42819114 -74.25116037 194.70374799 C-74.25002652 184.12134359 -74.25134616 173.53894135 -74.25387955 162.95653725 C-74.25674462 150.92965975 -74.25591525 138.90278997 -74.2505988 126.8759127 C-74.24797835 120.74712136 -74.24692871 114.61834089 -74.25024796 108.48954964 C-74.25324454 102.87158813 -74.25156254 97.25364749 -74.2462704 91.63568785 C-74.24516062 89.61224893 -74.24570514 87.58880823 -74.24814619 85.56537048 C-74.27690189 59.7326911 -74.18770118 36.61244138 -54.97305298 16.98443604 C-39.23970626 1.93982679 -20.83444966 -0.07315839 0 0 Z M159.88241577 89.25396729 C158.33079337 91.49485621 156.9077293 93.73252044 155.50741577 96.06646729 C154.61096056 97.53172741 153.71379387 98.99655242 152.81600952 100.46099854 C152.34147339 101.23910889 151.86693726 102.01721924 151.37802124 102.81890869 C148.81629652 106.98976119 146.19072455 111.12008477 143.56991577 115.25396729 C142.1304269 117.52847308 140.69167307 119.80336139 139.25888062 122.08209229 C138.32320496 123.55846168 137.37510395 125.02701387 136.41610718 126.48834229 C135.95768433 127.19474854 135.49926147 127.90115479 135.02694702 128.62896729 C134.61420532 129.25545166 134.20146362 129.88193604 133.7762146 130.52740479 C132.65255231 132.37396494 132.65255231 132.37396494 132.88241577 135.25396729 C134.74446655 135.72576416 134.74446655 135.72576416 136.64413452 136.20709229 C138.2862337 136.63872978 139.92815143 137.07105795 141.56991577 137.50396729 C142.38653687 137.70892822 143.20315796 137.91388916 144.04452515 138.12506104 C148.79114776 139.39338934 152.36893836 140.62244814 155.88241577 144.25396729 C156.86942588 147.87300434 157.0884311 150.34749983 156.25741577 154.00396729 C154.41796224 157.01398216 153.19871729 157.98389436 149.88241577 159.25396729 C141.91726178 159.12753627 134.44716419 156.56751054 126.88241577 154.25396729 C125.80935369 158.76949929 125.56742201 163.28122187 125.33351135 167.89915466 C125.28647656 168.7700142 125.23944177 169.64087373 125.19098169 170.53812295 C125.03411288 173.45909948 124.88247555 176.38032403 124.73080444 179.30157471 C124.61923695 181.39898325 124.50734621 183.49637462 124.39515686 185.59375 C124.09004024 191.31501289 123.78944667 197.03650575 123.48959899 202.75804687 C123.17117206 208.81878481 122.84850659 214.87929711 122.52629089 220.93983459 C121.91195143 232.50675375 121.30128209 244.07386361 120.69197303 255.64104873 C119.94781517 269.76543094 119.1994388 283.88958892 118.45077515 298.01373291 C118.1844844 303.03783031 117.9182163 308.0619289 117.65197754 313.08602905 C117.58658095 314.32005341 117.52118435 315.55407776 117.45380604 316.82549679 C116.99587755 325.46866776 116.53914224 334.11190132 116.08282471 342.75515747 C114.93795311 364.43217817 113.78766348 386.10883279 112.60360718 407.78375244 C112.50613767 409.57064037 112.40867738 411.3575288 112.31122684 413.14441776 C111.91404663 420.42255463 111.51584849 427.70062746 111.11189985 434.97839212 C110.9929807 437.12604095 110.87499568 439.27373868 110.75741386 441.42146111 C110.61815685 443.96326696 110.47728853 446.50498537 110.33435249 449.04658699 C110.16727168 452.11524346 110.0178102 455.1837686 109.88241577 458.25396729 C109.84073462 459.07051977 109.79905346 459.88707226 109.75610924 460.72836876 C109.5708183 465.28888631 109.5708183 465.28888631 112.33944702 468.90631104 C113.4402207 469.6934144 114.56019201 470.45415027 115.69491577 471.19146729 C116.89524956 472.04145734 118.09445028 472.89304952 119.29257202 473.74615479 C119.89730347 474.16477783 120.50203491 474.58340088 121.12509155 475.01470947 C138.46894359 487.24552261 150.94675695 502.74255825 160.88241577 521.25396729 C163.16793875 518.37367371 164.85561999 515.47090979 166.50741577 512.19146729 C169.90893438 505.87556114 174.182427 500.64443855 178.88241577 495.25396729 C179.58237671 494.41994385 180.28233765 493.58592041 181.00350952 492.72662354 C187.37275714 485.32894695 195.06991663 477.02485603 203.98031616 472.77716064 C207.61726764 470.89698971 210.1512939 469.32102894 212.88241577 466.25396729 C214.61817472 460.40277832 213.39837763 454.01104217 212.69491577 448.06646729 C212.54666156 446.41136695 212.40403014 444.75575279 212.2671814 443.09967041 C211.61722821 435.33184925 211.61722821 435.33184925 210.32089233 427.65533447 C209.76958432 424.63603287 209.8450524 421.82014858 209.90975952 418.75006104 C210.03107408 407.20931303 209.2874755 395.69492928 208.65560913 384.17608643 C208.44256147 380.27333974 208.23927589 376.37016135 208.03671265 372.46685791 C207.90382784 369.99091532 207.7703854 367.51500259 207.63632202 365.03912354 C207.57586197 363.86954605 207.51540192 362.69996857 207.45310974 361.49494934 C207.39312302 360.42550583 207.33313629 359.35606232 207.27133179 358.25421143 C207.22025772 357.30985733 207.16918365 356.36550323 207.11656189 355.39253235 C207.11030105 353.27320362 207.11030105 353.27320362 205.88241577 352.25396729 C205.84444835 350.15533258 205.86743883 348.05564372 205.90975952 345.95709229 C206.02636287 334.54206355 205.29566652 323.16070088 204.65560913 311.76812744 C204.4430567 307.97075385 204.23946619 304.17296914 204.03671265 300.37506104 C203.90377768 297.95445903 203.77033299 295.53388496 203.63632202 293.11334229 C203.57586197 291.98112244 203.51540192 290.84890259 203.45310974 289.68237305 C203.39312302 288.63317688 203.33313629 287.58398071 203.27133179 286.50299072 C203.22025772 285.58306335 203.16918365 284.66313599 203.11656189 283.71533203 C202.95800354 281.31741934 202.95800354 281.31741934 202.35716248 279.3082428 C201.7170958 276.53861158 201.83912963 273.97971685 201.89755249 271.13653564 C202.01640754 259.45411498 201.25122767 247.79472053 200.64022827 236.13287354 C200.51038549 233.61757478 200.38065726 231.1022701 200.2510376 228.58695984 C199.9797456 223.3430818 199.70525194 218.09938247 199.42880249 212.85577393 C199.11032592 206.8137657 198.80068272 200.77134763 198.49506867 194.72867638 C198.19872928 188.87796778 197.89363296 183.02774184 197.5852623 177.17765617 C197.4559533 174.70312519 197.32918765 172.22845989 197.20505142 169.75366402 C197.03094055 166.29832739 196.84682767 162.84365979 196.6602478 159.38897705 C196.58687698 157.86849258 196.58687698 157.86849258 196.51202393 156.31729126 C196.10523492 149.06908223 195.6689673 141.89468415 191.00741577 136.00396729 C187.39550531 131.12078399 184.2845444 126.03740672 181.19491577 120.81646729 C176.46854376 112.84904687 171.60687965 104.98212015 166.6277771 97.17022705 C166.15106567 96.4218457 165.67435425 95.67346436 165.18319702 94.90240479 C164.76207642 94.24417725 164.34095581 93.58594971 163.90707397 92.90777588 C162.88241577 91.25396729 162.88241577 91.25396729 161.88241577 89.25396729 C161.22241577 89.25396729 160.56241577 89.25396729 159.88241577 89.25396729 Z M3.88241577 454.25396729 C1.85476788 461.42129702 -0.15558001 468.5933154 -2.15396118 475.76885986 C-2.83585374 478.20942845 -3.52170235 480.64889531 -4.21157837 483.08721924 C-5.20239171 486.59180236 -6.17892026 490.10009856 -7.15274048 493.60943604 C-7.46413467 494.69919235 -7.77552887 495.78894867 -8.09635925 496.91172791 C-8.37672531 497.9324086 -8.65709137 498.95308929 -8.94595337 500.00469971 C-9.19688248 500.89960617 -9.44781158 501.79451263 -9.7063446 502.71653748 C-10.16046526 505.51855174 -9.83736375 507.52676794 -9.11758423 510.25396729 C-7.99609985 510.23656494 -7.99609985 510.23656494 -6.85195923 510.21881104 C-5.3746936 510.20527588 -5.3746936 510.20527588 -3.86758423 510.19146729 C-2.89305298 510.17986572 -1.91852173 510.16826416 -0.91445923 510.15631104 C1.88241577 510.25396729 1.88241577 510.25396729 3.76937866 510.73101807 C6.02692099 511.28973045 8.17084359 511.52637204 10.48788452 511.71881104 C11.82859009 511.83410156 11.82859009 511.83410156 13.19638062 511.95172119 C14.61878052 512.07039551 14.61878052 512.07039551 16.06991577 512.19146729 C25.7001876 513.02686821 35.29077339 514.05819224 44.88241577 515.25396729 C44.88241577 515.58396729 44.88241577 515.91396729 44.88241577 516.25396729 C48.44414775 517.23594222 52.00693043 518.21405071 55.56991577 519.19146729 C56.57731812 519.46926025 57.58472046 519.74705322 58.62265015 520.03326416 C59.59911499 520.30074463 60.57557983 520.5682251 61.58163452 520.84381104 C62.47713013 521.08994141 63.37262573 521.33607178 64.29525757 521.58966064 C66.87719981 522.28840679 66.87719981 522.28840679 69.5262146 522.71710205 C71.88241577 523.25396729 71.88241577 523.25396729 74.88241577 525.25396729 C77.31141749 526.34342486 79.74504373 527.40137554 82.19491577 528.44146729 C108.35486927 539.78482445 129.86306886 555.01259434 149.88241577 575.25396729 C154.64727123 565.72425638 149.81577442 548.01350553 146.66366577 538.29693604 C135.86810913 507.91504441 107.49813782 488.08020065 79.65634155 474.53765869 C58.26971899 464.6405577 31.66141152 454.04873038 7.64950562 454.22613525 C6.40636597 454.23531982 5.16322632 454.24450439 3.88241577 454.25396729 Z M315.88241577 453.25396729 C313.4433242 453.33143232 313.4433242 453.33143232 310.62460327 453.90631104 C309.53574829 454.10216797 308.44689331 454.2980249 307.32504272 454.49981689 C306.14772583 454.72806152 304.97040894 454.95630615 303.75741577 455.19146729 C302.54851685 455.42164551 301.33961792 455.65182373 300.09408569 455.88897705 C262.54409707 462.93047682 262.54409707 462.93047682 229.88241577 481.25396729 C228.51886082 481.90355784 227.14126981 482.52382433 225.75741577 483.12896729 C220.65797409 485.62301737 216.22342686 488.73966468 211.69491577 492.12896729 C211.03024292 492.62251709 210.36557007 493.11606689 209.68075562 493.62457275 C205.02934277 497.16482117 200.93979285 501.05516199 196.88241577 505.25396729 C196.01358765 506.10345947 195.14475952 506.95295166 194.24960327 507.82818604 C178.05360273 524.42507768 170.71724253 544.8874042 170.91366577 567.91802979 C170.88023787 571.48645864 170.54846022 574.75723392 169.88241577 578.25396729 C173.24350948 574.95225685 176.4071756 571.5500614 179.50741577 568.00396729 C188.35913594 558.25140834 199.01435008 550.60537432 209.88241577 543.25396729 C210.44348022 542.87240479 211.00454468 542.49084229 211.58261108 542.09771729 C229.13600561 530.36149529 249.56606241 523.39512551 269.83554077 517.97271729 C273.66530388 517.20888748 273.66530388 517.20888748 276.88241577 515.25396729 C278.27728631 515.04983989 279.68092601 514.90517219 281.08554077 514.78521729 C285.2263832 514.40850952 289.35899834 513.99256377 293.49179077 513.53521729 C294.6596814 513.4076001 295.82757202 513.27998291 297.03085327 513.14849854 C299.41645581 512.88716897 301.80187612 512.62417004 304.18710327 512.35943604 C311.46488582 511.56767727 318.71515726 510.976266 326.02792358 510.61529541 C329.07957816 510.44450671 329.07957816 510.44450671 331.88241577 508.25396729 C331.26482786 501.81844725 329.81737832 495.89820376 328.01132202 489.69927979 C327.72893173 488.71652069 327.44654144 487.7337616 327.15559387 486.72122192 C326.56093298 484.65803064 325.96323082 482.59571373 325.36264038 480.53424072 C324.4424658 477.37054393 323.53590367 474.20315816 322.63046265 471.03521729 C322.04989349 469.02717011 321.46854096 467.01934923 320.88632202 465.01177979 C320.61542252 464.06287872 320.34452301 463.11397766 320.06541443 462.13632202 C319.80852341 461.26136078 319.55163239 460.38639954 319.28695679 459.48492432 C319.06347061 458.71407501 318.83998444 457.94322571 318.60972595 457.14901733 C317.95272342 455.05308037 317.95272342 455.05308037 315.88241577 453.25396729 Z M-11.11758423 508.25396729 C-10.11758423 510.25396729 -10.11758423 510.25396729 -10.11758423 510.25396729 Z M331.88241577 508.25396729 C331.22241577 508.91396729 330.56241577 509.57396729 329.88241577 510.25396729 C330.87241577 510.25396729 331.86241577 510.25396729 332.88241577 510.25396729 C332.55241577 509.59396729 332.22241577 508.93396729 331.88241577 508.25396729 Z M-28.74258423 532.12896729 C-29.86962769 532.2073584 -30.99667114 532.28574951 -32.15786743 532.36651611 C-33.76601318 532.49256226 -33.76601318 532.49256226 -35.40664673 532.62115479 C-36.36264771 532.69447021 -37.31864868 532.76778564 -38.30361938 532.84332275 C-41.71098954 533.25629996 -41.71098954 533.25629996 -47.11758423 535.25396729 C-47.11758423 546.14396729 -47.11758423 557.03396729 -47.11758423 568.25396729 C-27.07301799 568.29907051 -7.02849267 568.33593098 13.01611137 568.35759163 C22.32263884 568.36791523 31.6291326 568.38199621 40.93563843 568.40484619 C49.04481374 568.42474696 57.15396464 568.43767583 65.26316369 568.44214427 C69.55906769 568.44475729 73.85490186 568.45092137 78.15078354 568.4654274 C82.19067452 568.47895904 86.23046662 568.48319893 90.27037811 568.48018265 C91.75632133 568.4807348 93.2422677 568.4847385 94.72819138 568.49237823 C96.75059391 568.50226989 98.773049 568.49875832 100.79547119 568.49447632 C101.92927656 568.4963199 103.06308193 568.49816349 104.23124504 568.50006294 C107.03801572 568.52418301 107.03801572 568.52418301 108.88241577 566.25396729 C78.87351322 542.95656736 38.32291758 532.55483163 0.88241577 531.25396729 C-0.29449829 531.21271729 -1.47141235 531.17146729 -2.68399048 531.12896729 C-11.40553673 530.98345661 -20.04672786 531.49987972 -28.74258423 532.12896729 Z M210.88241577 567.25396729 C214.19516662 568.35821757 216.63801604 568.37704279 220.12757874 568.3742218 C222.09005554 568.3762838 222.09005554 568.3762838 224.09217834 568.37838745 C225.54528831 568.37484828 226.99839805 568.37121347 228.45150757 568.36749268 C229.97902423 568.36721066 231.50654103 568.36736883 233.03405762 568.36793518 C237.18458588 568.36822258 241.33508535 568.36233515 245.48560691 568.35536122 C249.8217986 568.3491181 254.15799091 568.34852312 258.4941864 568.34733582 C266.70705569 568.34422534 274.91991169 568.33601575 283.13277513 568.32598633 C292.48212086 568.31481641 301.83146722 568.30931252 311.18081796 568.30429089 C330.41469296 568.29383292 349.64854975 568.27549094 368.88241577 568.25396729 C368.88241577 557.36396729 368.88241577 546.47396729 368.88241577 535.25396729 C317.48750428 520.56970686 253.36206107 536.5935359 210.88241577 567.25396729 Z M150.88241577 576.25396729 C151.88241577 578.25396729 151.88241577 578.25396729 151.88241577 578.25396729 Z " fill="#020303" transform="translate(351.1175842285156,189.74603271484375)"/>
<path d="M0 0 C0.33 0 0.66 0 1 0 C1 2.97 1 5.94 1 9 C0.67 9 0.34 9 0 9 C0 6.03 0 3.06 0 0 Z " fill="#131313" transform="translate(471,487)"/>
<path d="M0 0 C0.33 0 0.66 0 1 0 C1 1.65 1 3.3 1 5 C0.67 5 0.34 5 0 5 C0 3.35 0 1.7 0 0 Z " fill="#141414" transform="translate(554,514)"/>
<path d="M0 0 C4 1 4 1 4 1 Z " fill="#161514" transform="translate(376,725)"/>
<path d="M0 0 C4 1 4 1 4 1 Z " fill="#151313" transform="translate(357,723)"/>
<path d="M0 0 C1 4 1 4 1 4 Z " fill="#151514" transform="translate(546,364)"/>
<path d="M0 0 C0.66 0.66 1.32 1.32 2 2 C1.01 1.67 0.02 1.34 -1 1 C-0.67 0.67 -0.34 0.34 0 0 Z " fill="#131214" transform="translate(486,322)"/>
<path d="M0 0 C3 1 3 1 3 1 Z " fill="#151513" transform="translate(605,735)"/>
<path d="M0 0 C0.66 0 1.32 0 2 0 C1.67 0.66 1.34 1.32 1 2 C0.67 1.34 0.34 0.68 0 0 Z " fill="#161513" transform="translate(306,725)"/>
<path d="M0 0 C3 1 3 1 3 1 Z " fill="#151514" transform="translate(327,723)"/>
<path d="M0 0 C3 1 3 1 3 1 Z " fill="#141614" transform="translate(575,721)"/>
<path d="M0 0 C0.66 0 1.32 0 2 0 C1.67 0.66 1.34 1.32 1 2 C0.67 1.34 0.34 0.68 0 0 Z " fill="#141415" transform="translate(560,649)"/>
<path d="" fill="#161414" transform="translate(0,0)"/>
<path d="" fill="#161615" transform="translate(0,0)"/>
<path d="" fill="#161615" transform="translate(0,0)"/>
<path d="" fill="#131312" transform="translate(0,0)"/>
<path d="" fill="#141311" transform="translate(0,0)"/>
<path d="" fill="#131112" transform="translate(0,0)"/>
<path d="" fill="#161515" transform="translate(0,0)"/>
<path d="" fill="#141212" transform="translate(0,0)"/>
<path d="M0 0 C2 1 2 1 2 1 Z " fill="#151414" transform="translate(435,743)"/>
<path d="M0 0 C2 1 2 1 2 1 Z " fill="#151314" transform="translate(431,741)"/>
<path d="" fill="#151312" transform="translate(0,0)"/>
<path d="" fill="#141312" transform="translate(0,0)"/>
<path d="M0 0 C2 1 2 1 2 1 Z " fill="#181616" transform="translate(552,736)"/>
<path d="" fill="#131213" transform="translate(0,0)"/>
<path d="M0 0 C2 1 2 1 2 1 Z " fill="#151314" transform="translate(410,733)"/>
<path d="" fill="#121312" transform="translate(0,0)"/>
<path d="M0 0 C2 1 2 1 2 1 Z " fill="#151511" transform="translate(709,724)"/>
<path d="M0 0 C2 1 2 1 2 1 Z " fill="#151513" transform="translate(697,723)"/>
<path d="M0 0 C2 1 2 1 2 1 Z " fill="#151614" transform="translate(662,723)"/>
<path d="M0 0 C2 1 2 1 2 1 Z " fill="#161716" transform="translate(616,706)"/>
<path d="M0 0 C2 1 2 1 2 1 Z " fill="#151514" transform="translate(398,704)"/>
<path d="" fill="#151515" transform="translate(0,0)"/>
<path d="M0 0 C2 1 2 1 2 1 Z " fill="#171414" transform="translate(586,669)"/>
<path d="" fill="#141513" transform="translate(0,0)"/>
<path d="" fill="#131211" transform="translate(0,0)"/>
<path d="M0 0 C2 1 2 1 2 1 Z " fill="#151413" transform="translate(419,661)"/>
<path d="" fill="#161414" transform="translate(0,0)"/>
<path d="M0 0 C2 1 2 1 2 1 Z " fill="#141413" transform="translate(363,646)"/>
<path d="" fill="#151513" transform="translate(0,0)"/>
<path d="" fill="#121111" transform="translate(0,0)"/>
<path d="" fill="#151314" transform="translate(0,0)"/>
<path d="" fill="#121111" transform="translate(0,0)"/>
<path d="" fill="#141513" transform="translate(0,0)"/>
<path d="" fill="#161516" transform="translate(0,0)"/>
<path d="" fill="#121212" transform="translate(0,0)"/>
<path d="" fill="#131413" transform="translate(0,0)"/>
<path d="" fill="#111110" transform="translate(0,0)"/>
<path d="" fill="#131313" transform="translate(0,0)"/>
<path d="" fill="#131413" transform="translate(0,0)"/>
<path d="" fill="#141315" transform="translate(0,0)"/>
<path d="M0 0 C2 1 2 1 2 1 Z " fill="#141212" transform="translate(490,349)"/>
<path d="" fill="#151613" transform="translate(0,0)"/>
<path d="M0 0 C2 1 2 1 2 1 Z " fill="#141212" transform="translate(520,298)"/>
<path d="" fill="#131311" transform="translate(0,0)"/>
<path d="" fill="#101012" transform="translate(0,0)"/>
<path d="" fill="#121212" transform="translate(0,0)"/>
<path d="" fill="#131311" transform="translate(0,0)"/>
<path d="" fill="#161614" transform="translate(0,0)"/>
<path d="" fill="#161414" transform="translate(0,0)"/>
<path d="" fill="#151311" transform="translate(0,0)"/>
<path d="" fill="#131212" transform="translate(0,0)"/>
<path d="" fill="#141414" transform="translate(0,0)"/>
<path d="" fill="#171614" transform="translate(0,0)"/>
<path d="" fill="#141412" transform="translate(0,0)"/>
<path d="" fill="#141413" transform="translate(0,0)"/>
<path d="" fill="#151314" transform="translate(0,0)"/>
<path d="" fill="#141313" transform="translate(0,0)"/>
<path d="" fill="#161517" transform="translate(0,0)"/>
<path d="" fill="#141311" transform="translate(0,0)"/>
<path d="" fill="#131310" transform="translate(0,0)"/>
<path d="" fill="#141412" transform="translate(0,0)"/>
<path d="" fill="#141313" transform="translate(0,0)"/>
<path d="" fill="#181916" transform="translate(0,0)"/>
<path d="" fill="#161716" transform="translate(0,0)"/>
<path d="" fill="#161715" transform="translate(0,0)"/>
<path d="" fill="#161715" transform="translate(0,0)"/>
<path d="" fill="#181515" transform="translate(0,0)"/>
<path d="" fill="#161714" transform="translate(0,0)"/>
<path d="" fill="#171515" transform="translate(0,0)"/>
<path d="" fill="#181514" transform="translate(0,0)"/>
<path d="" fill="#171714" transform="translate(0,0)"/>
<path d="" fill="#1C1B1E" transform="translate(0,0)"/>
<path d="" fill="#151613" transform="translate(0,0)"/>
<path d="" fill="#151714" transform="translate(0,0)"/>
<path d="" fill="#171615" transform="translate(0,0)"/>
<path d="" fill="#171714" transform="translate(0,0)"/>
<path d="" fill="#141413" transform="translate(0,0)"/>
<path d="" fill="#161513" transform="translate(0,0)"/>
<path d="" fill="#141312" transform="translate(0,0)"/>
<path d="" fill="#1A1717" transform="translate(0,0)"/>
<path d="" fill="#141516" transform="translate(0,0)"/>
<path d="" fill="#141414" transform="translate(0,0)"/>
<path d="" fill="#131312" transform="translate(0,0)"/>
<path d="" fill="#141411" transform="translate(0,0)"/>
<path d="" fill="#141311" transform="translate(0,0)"/>
<path d="" fill="#161414" transform="translate(0,0)"/>
<path d="" fill="#171415" transform="translate(0,0)"/>
<path d="" fill="#131413" transform="translate(0,0)"/>
<path d="" fill="#131214" transform="translate(0,0)"/>
<path d="" fill="#151514" transform="translate(0,0)"/>
<path d="" fill="#121213" transform="translate(0,0)"/>
<path d="" fill="#161315" transform="translate(0,0)"/>
<path d="" fill="#151514" transform="translate(0,0)"/>
<path d="" fill="#131211" transform="translate(0,0)"/>
<path d="" fill="#151312" transform="translate(0,0)"/>
<path d="" fill="#161212" transform="translate(0,0)"/>
<path d="" fill="#151414" transform="translate(0,0)"/>
<path d="" fill="#161513" transform="translate(0,0)"/>
<path d="" fill="#151515" transform="translate(0,0)"/>
<path d="" fill="#161413" transform="translate(0,0)"/>
<path d="" fill="#141412" transform="translate(0,0)"/>
<path d="" fill="#151415" transform="translate(0,0)"/>
<path d="" fill="#131112" transform="translate(0,0)"/>
<path d="" fill="#131412" transform="translate(0,0)"/>
<path d="" fill="#151215" transform="translate(0,0)"/>
<path d="" fill="#161613" transform="translate(0,0)"/>
<path d="" fill="#161616" transform="translate(0,0)"/>
<path d="" fill="#161514" transform="translate(0,0)"/>
<path d="" fill="#151514" transform="translate(0,0)"/>
<path d="" fill="#141514" transform="translate(0,0)"/>
<path d="" fill="#171515" transform="translate(0,0)"/>
<path d="" fill="#141312" transform="translate(0,0)"/>
<path d="" fill="#151412" transform="translate(0,0)"/>
<path d="" fill="#161614" transform="translate(0,0)"/>
<path d="" fill="#151614" transform="translate(0,0)"/>
<path d="" fill="#161514" transform="translate(0,0)"/>
<path d="" fill="#141614" transform="translate(0,0)"/>
<path d="" fill="#161414" transform="translate(0,0)"/>
<path d="" fill="#151615" transform="translate(0,0)"/>
<path d="" fill="#151713" transform="translate(0,0)"/>
<path d="" fill="#161514" transform="translate(0,0)"/>
<path d="" fill="#121311" transform="translate(0,0)"/>
<path d="" fill="#151516" transform="translate(0,0)"/>
<path d="" fill="#151415" transform="translate(0,0)"/>
<path d="" fill="#151314" transform="translate(0,0)"/>
<path d="" fill="#161412" transform="translate(0,0)"/>
<path d="" fill="#151413" transform="translate(0,0)"/>
<path d="" fill="#121311" transform="translate(0,0)"/>
<path d="" fill="#141312" transform="translate(0,0)"/>
<path d="" fill="#151614" transform="translate(0,0)"/>
<path d="" fill="#171717" transform="translate(0,0)"/>
<path d="" fill="#131213" transform="translate(0,0)"/>
<path d="" fill="#121412" transform="translate(0,0)"/>
<path d="" fill="#161412" transform="translate(0,0)"/>
<path d="" fill="#171514" transform="translate(0,0)"/>
<path d="" fill="#121211" transform="translate(0,0)"/>
<path d="" fill="#161816" transform="translate(0,0)"/>
<path d="" fill="#131111" transform="translate(0,0)"/>
<path d="" fill="#131312" transform="translate(0,0)"/>
<path d="" fill="#171716" transform="translate(0,0)"/>
<path d="" fill="#141513" transform="translate(0,0)"/>
<path d="" fill="#111212" transform="translate(0,0)"/>
<path d="" fill="#151413" transform="translate(0,0)"/>
<path d="" fill="#161414" transform="translate(0,0)"/>
<path d="" fill="#161513" transform="translate(0,0)"/>
<path d="" fill="#151313" transform="translate(0,0)"/>
<path d="" fill="#151715" transform="translate(0,0)"/>
<path d="" fill="#151414" transform="translate(0,0)"/>
<path d="" fill="#151414" transform="translate(0,0)"/>
<path d="" fill="#161514" transform="translate(0,0)"/>
<path d="" fill="#141315" transform="translate(0,0)"/>
<path d="" fill="#161514" transform="translate(0,0)"/>
<path d="" fill="#121311" transform="translate(0,0)"/>
<path d="" fill="#161716" transform="translate(0,0)"/>
<path d="" fill="#171613" transform="translate(0,0)"/>
<path d="" fill="#131512" transform="translate(0,0)"/>
<path d="" fill="#171616" transform="translate(0,0)"/>
<path d="" fill="#141412" transform="translate(0,0)"/>
<path d="" fill="#151514" transform="translate(0,0)"/>
<path d="" fill="#141614" transform="translate(0,0)"/>
<path d="" fill="#141314" transform="translate(0,0)"/>
<path d="" fill="#151716" transform="translate(0,0)"/>
<path d="" fill="#151412" transform="translate(0,0)"/>
<path d="" fill="#171615" transform="translate(0,0)"/>
<path d="" fill="#161315" transform="translate(0,0)"/>
<path d="" fill="#161415" transform="translate(0,0)"/>
<path d="" fill="#191716" transform="translate(0,0)"/>
<path d="" fill="#141412" transform="translate(0,0)"/>
<path d="" fill="#131312" transform="translate(0,0)"/>
<path d="" fill="#131412" transform="translate(0,0)"/>
<path d="" fill="#151412" transform="translate(0,0)"/>
<path d="" fill="#121312" transform="translate(0,0)"/>
<path d="" fill="#151214" transform="translate(0,0)"/>
<path d="" fill="#171817" transform="translate(0,0)"/>
<path d="" fill="#141413" transform="translate(0,0)"/>
<path d="" fill="#131210" transform="translate(0,0)"/>
<path d="" fill="#111211" transform="translate(0,0)"/>
<path d="" fill="#161313" transform="translate(0,0)"/>
<path d="" fill="#191617" transform="translate(0,0)"/>
<path d="" fill="#171415" transform="translate(0,0)"/>
<path d="" fill="#151214" transform="translate(0,0)"/>
<path d="" fill="#151616" transform="translate(0,0)"/>
<path d="" fill="#161614" transform="translate(0,0)"/>
<path d="" fill="#141412" transform="translate(0,0)"/>
<path d="" fill="#131111" transform="translate(0,0)"/>
<path d="" fill="#171615" transform="translate(0,0)"/>
<path d="" fill="#131314" transform="translate(0,0)"/>
<path d="" fill="#121315" transform="translate(0,0)"/>
<path d="" fill="#121211" transform="translate(0,0)"/>
<path d="" fill="#181515" transform="translate(0,0)"/>
<path d="" fill="#131412" transform="translate(0,0)"/>
<path d="" fill="#151515" transform="translate(0,0)"/>
<path d="" fill="#131213" transform="translate(0,0)"/>
<path d="" fill="#121212" transform="translate(0,0)"/>
<path d="" fill="#141213" transform="translate(0,0)"/>
<path d="" fill="#151514" transform="translate(0,0)"/>
<path d="" fill="#131213" transform="translate(0,0)"/>
<path d="" fill="#141212" transform="translate(0,0)"/>
<path d="" fill="#131513" transform="translate(0,0)"/>
<path d="" fill="#141413" transform="translate(0,0)"/>
<path d="" fill="#141617" transform="translate(0,0)"/>
<path d="" fill="#13120F" transform="translate(0,0)"/>
<path d="" fill="#141412" transform="translate(0,0)"/>
<path d="" fill="#121212" transform="translate(0,0)"/>
<path d="" fill="#111111" transform="translate(0,0)"/>
<path d="" fill="#121211" transform="translate(0,0)"/>
<path d="" fill="#141313" transform="translate(0,0)"/>
<path d="" fill="#151311" transform="translate(0,0)"/>
<path d="" fill="#131513" transform="translate(0,0)"/>
<path d="" fill="#12120F" transform="translate(0,0)"/>
<path d="" fill="#131212" transform="translate(0,0)"/>
<path d="" fill="#121312" transform="translate(0,0)"/>
<path d="" fill="#141313" transform="translate(0,0)"/>
<path d="" fill="#151314" transform="translate(0,0)"/>
<path d="" fill="#141213" transform="translate(0,0)"/>
<path d="" fill="#161514" transform="translate(0,0)"/>
<path d="" fill="#121312" transform="translate(0,0)"/>
<path d="" fill="#121412" transform="translate(0,0)"/>
<path d="" fill="#121515" transform="translate(0,0)"/>
<path d="" fill="#171315" transform="translate(0,0)"/>
<path d="" fill="#121012" transform="translate(0,0)"/>
<path d="" fill="#111212" transform="translate(0,0)"/>
<path d="" fill="#111012" transform="translate(0,0)"/>
<path d="" fill="#161515" transform="translate(0,0)"/>
<path d="" fill="#141413" transform="translate(0,0)"/>
<path d="" fill="#131315" transform="translate(0,0)"/>
<path d="" fill="#101110" transform="translate(0,0)"/>
<path d="" fill="#131112" transform="translate(0,0)"/>
<path d="" fill="#151513" transform="translate(0,0)"/>
<path d="" fill="#141312" transform="translate(0,0)"/>
<path d="" fill="#111212" transform="translate(0,0)"/>
<path d="" fill="#141313" transform="translate(0,0)"/>
<path d="" fill="#121411" transform="translate(0,0)"/>
<path d="" fill="#171515" transform="translate(0,0)"/>
<path d="" fill="#121311" transform="translate(0,0)"/>
<path d="" fill="#121211" transform="translate(0,0)"/>
<path d="" fill="#181415" transform="translate(0,0)"/>
<path d="" fill="#121111" transform="translate(0,0)"/>
<path d="" fill="#131310" transform="translate(0,0)"/>
<path d="" fill="#171616" transform="translate(0,0)"/>
<path d="" fill="#121114" transform="translate(0,0)"/>
<path d="" fill="#121312" transform="translate(0,0)"/>
<path d="" fill="#111311" transform="translate(0,0)"/>
<path d="" fill="#111110" transform="translate(0,0)"/>
<path d="" fill="#111411" transform="translate(0,0)"/>
<path d="" fill="#101211" transform="translate(0,0)"/>
<path d="" fill="#141311" transform="translate(0,0)"/>
<path d="" fill="#141413" transform="translate(0,0)"/>
<path d="" fill="#131411" transform="translate(0,0)"/>
<path d="" fill="#101012" transform="translate(0,0)"/>
<path d="" fill="#131314" transform="translate(0,0)"/>
<path d="" fill="#141210" transform="translate(0,0)"/>
<path d="" fill="#111313" transform="translate(0,0)"/>
<path d="" fill="#121211" transform="translate(0,0)"/>
<path d="" fill="#131212" transform="translate(0,0)"/>
<path d="" fill="#121313" transform="translate(0,0)"/>
<path d="" fill="#0F1112" transform="translate(0,0)"/>
<path d="" fill="#141313" transform="translate(0,0)"/>
<path d="" fill="#161212" transform="translate(0,0)"/>
<path d="" fill="#141314" transform="translate(0,0)"/>
<path d="" fill="#141411" transform="translate(0,0)"/>
<path d="" fill="#151212" transform="translate(0,0)"/>
<path d="" fill="#141614" transform="translate(0,0)"/>
<path d="" fill="#111212" transform="translate(0,0)"/>
<path d="" fill="#141312" transform="translate(0,0)"/>
<path d="" fill="#141314" transform="translate(0,0)"/>
<path d="" fill="#151313" transform="translate(0,0)"/>
<path d="" fill="#131313" transform="translate(0,0)"/>
<path d="" fill="#141413" transform="translate(0,0)"/>
<path d="" fill="#141414" transform="translate(0,0)"/>
<path d="" fill="#151314" transform="translate(0,0)"/>
<path d="" fill="#131213" transform="translate(0,0)"/>
<path d="" fill="#110F12" transform="translate(0,0)"/>
<path d="" fill="#111110" transform="translate(0,0)"/>
<path d="" fill="#121112" transform="translate(0,0)"/>
<path d="" fill="#111311" transform="translate(0,0)"/>
<path d="" fill="#181515" transform="translate(0,0)"/>
<path d="" fill="#141213" transform="translate(0,0)"/>
<path d="" fill="#121413" transform="translate(0,0)"/>
<path d="" fill="#131411" transform="translate(0,0)"/>
<path d="" fill="#101111" transform="translate(0,0)"/>
<path d="" fill="#111212" transform="translate(0,0)"/>
<path d="" fill="#131213" transform="translate(0,0)"/>
<path d="" fill="#111112" transform="translate(0,0)"/>
<path d="" fill="#171614" transform="translate(0,0)"/>
<path d="" fill="#131212" transform="translate(0,0)"/>
<path d="" fill="#141514" transform="translate(0,0)"/>
<path d="" fill="#141412" transform="translate(0,0)"/>
<path d="" fill="#141414" transform="translate(0,0)"/>
<path d="" fill="#0F1112" transform="translate(0,0)"/>
<path d="" fill="#141513" transform="translate(0,0)"/>
<path d="" fill="#131212" transform="translate(0,0)"/>
<path d="" fill="#121011" transform="translate(0,0)"/>
<path d="" fill="#151313" transform="translate(0,0)"/>
<path d="" fill="#131211" transform="translate(0,0)"/>
<path d="" fill="#141213" transform="translate(0,0)"/>
<path d="" fill="#141513" transform="translate(0,0)"/>
<path d="" fill="#171413" transform="translate(0,0)"/>
<path d="" fill="#151412" transform="translate(0,0)"/>
<path d="" fill="#141312" transform="translate(0,0)"/>
<path d="" fill="#151413" transform="translate(0,0)"/>
<path d="" fill="#151614" transform="translate(0,0)"/>
<path d="" fill="#151212" transform="translate(0,0)"/>
<path d="" fill="#141413" transform="translate(0,0)"/>
<path d="" fill="#131312" transform="translate(0,0)"/>
</svg>
